<svg data-v-423bf9ae="" xmlns="http://www.w3.org/2000/svg" viewBox="0 0 280.76698321705794 163" class="iconAbove"><!----><!----><!----><g data-v-423bf9ae="" id="89268f40-79be-4c51-8e09-2a6441803690" fill="black" transform="matrix(4.341533660888672,0,0,4.341533660888672,-0.9117211699485779,103.43415069580078)"><path d="M4.24 9.91C4.98 9.02 4.96 7.81 4.96 6.73L4.96 1.60L6.19 1.19L6.19 0.70L2.37 0.70L2.23 1.33L3.56 1.60L3.56 6.85L3.56 7.45C3.56 8.74 3.47 9.90 2.21 9.90C1.97 9.90 1.72 9.86 1.44 9.76L0.94 7.69L0.21 7.83L0.21 10.12C0.87 10.44 1.65 10.68 2.42 10.68C3.11 10.68 3.75 10.47 4.24 9.91ZM7.80 8.04C7.81 9.83 8.58 10.61 9.93 10.61C10.70 10.61 11.72 10.21 12.35 9.44L12.35 10.50L14.57 10.50L14.73 9.88L13.59 9.63L13.59 3.21L11.42 3.21L11.28 3.88L12.35 4.07L12.35 8.75C11.98 9.18 11.14 9.46 10.40 9.46C9.51 9.46 9.06 9.16 9.06 7.76L9.06 3.21L6.82 3.21L6.68 3.84L7.80 4.07ZM22.27 10.50L22.41 9.86L21.41 9.62L21.41 5.32C21.41 3.64 20.24 3.09 18.79 3.09C17.84 3.09 17.01 3.39 16.28 3.71L16.28 5.53L17.01 5.66L17.40 4.06C17.84 3.91 18.28 3.86 18.72 3.86C19.50 3.86 20.15 4.26 20.15 5.31L20.15 6.45C19.14 6.57 18.34 6.72 17.43 6.96C16.21 7.28 15.81 7.84 15.81 8.78C15.81 9.95 16.67 10.61 17.67 10.61C18.48 10.61 19.59 10.04 20.15 9.37L20.15 10.50ZM17.21 8.67C17.21 8.09 17.47 7.59 18.35 7.35C18.96 7.18 19.54 7.11 20.15 7.04L20.15 8.64C19.81 9.13 18.93 9.73 18.26 9.73C17.70 9.73 17.21 9.55 17.21 8.67ZM30.21 5.67C30.17 3.88 29.43 3.09 28.08 3.09C27.31 3.09 26.29 3.50 25.66 4.27L25.66 3.12L23.18 3.46L23.25 4.07L24.42 4.30L24.42 9.66L23.20 10.08L23.20 10.50L26.59 10.50L26.73 9.83L25.66 9.63L25.66 4.96C26.03 4.52 26.87 4.24 27.61 4.24C28.50 4.24 28.95 4.55 28.95 5.95L28.95 9.66L27.87 10.08L27.87 10.50L31.19 10.50L31.33 9.87L30.21 9.63ZM35.73-0.10C34.54-0.10 33.26 0.57 33.26 2.44L33.25 3.47L32.03 3.47L32.03 4.24L33.25 4.24L33.25 9.66L32.03 10.08L32.03 10.50L35.92 10.50L36.06 9.83L34.51 9.63L34.51 4.24L36.37 4.24L36.37 3.47L34.51 3.47L34.51 2.45C34.51 1.09 34.89 0.67 35.73 0.67C35.95 0.67 36.25 0.73 36.47 0.84L36.86 2.38L37.56 2.24L37.56 0.38C37.02 0.06 36.27-0.10 35.73-0.10ZM39.73 11.09C39.28 11.93 39.12 12.52 38.11 12.52C37.86 12.52 37.58 12.49 37.28 12.42L36.89 13.58C37.21 13.68 37.51 13.72 37.79 13.72C38.88 13.72 39.56 13.05 39.97 12.31C40.38 11.59 40.77 10.57 41.27 9.30C41.82 7.94 42.62 6.23 43.50 4.05L44.41 3.64L44.41 3.22L41.92 3.22L41.78 3.89L42.63 4.03L40.70 8.68L40.61 8.29L38.88 3.99L39.72 3.64L39.72 3.22L36.72 3.22L36.58 3.85L37.55 4.09L40.07 10.26C39.96 10.56 39.83 10.85 39.73 11.09ZM47.35 5.03L47.35 1.47L50.76 1.47L51.21 3.21L51.91 3.07L51.91 0.70L44.76 0.70L44.62 1.33L45.95 1.60L45.95 9.60L44.62 10.01L44.62 10.50L48.80 10.50L48.94 9.87L47.35 9.60L47.35 5.80L49.71 5.87L50.19 6.79L50.58 6.65L50.58 4.17L50.09 4.03L49.71 4.97ZM53.31 9.73C53.54 10.16 53.87 10.50 54.31 10.72C54.74 10.49 55.09 10.14 55.34 9.70C55.10 9.27 54.78 8.95 54.35 8.71C53.90 8.95 53.55 9.30 53.31 9.73ZM64.05 3.63L64.75 3.49L64.75 1.12C63.90 0.73 63.03 0.55 62.17 0.55C59.42 0.55 56.95 2.45 56.95 5.61C56.95 8.90 59.18 10.63 61.73 10.63C63.11 10.63 64.08 10.22 64.88 9.83L64.88 7.46L64.16 7.32L63.66 9.46C63.22 9.67 62.78 9.84 62.06 9.84C60.12 9.84 58.42 8.78 58.42 5.61C58.42 2.69 60.13 1.32 61.94 1.32C62.50 1.32 63.13 1.37 63.57 1.65Z"></path></g><!----><g data-v-423bf9ae="" id="0ec17fd4-04f4-4a59-973d-64d296f5e07a" transform="matrix(1.125,0,0,1.125,84.74944305419922,-11.25)" stroke="none" fill="black"><path stroke-linecap="round" stroke-linejoin="round" stroke-miterlimit="10" d="M25 69.998L22.499 90 25 69.998zM47.5 49.169c-1.557.927-3.238 1.454-4.999 1.454-2.249 0-4.371-.833-6.26-2.294v.548a6.631 6.631 0 0 1-1.953 4.717 6.655 6.655 0 0 1-2.167 1.445l-18.755 7.773A11.447 11.447 0 0 0 10 70.936V90h37.5V49.169z"></path><path stroke="#000" stroke-linecap="round" stroke-linejoin="round" stroke-miterlimit="10" d="M47.5 10.912A14.174 14.174 0 0 0 42.501 10c-7.262 0-13.239 5.446-14.104 12.478v4.059c-1.84.654-3.163 2.391-3.163 4.454 0 4.038 2.05 7.311 4.606 7.424 2.35 7.242 7.131 12.209 12.66 12.209 1.761 0 3.442-.506 4.999-1.429V10.912zM77.272 53.51l-2.653-2.652 2.653 2.652z"></path><circle stroke="#000" stroke-linecap="round" stroke-linejoin="round" stroke-miterlimit="10" cx="77.499" cy="77.498" r="5.729"></circle><path stroke="#000" stroke-linecap="round" stroke-linejoin="round" stroke-miterlimit="10" d="M81.088 86.158c1.466-.605 3.117-.002 3.891 1.338a12.522 12.522 0 0 0 2.517-2.52 3.118 3.118 0 0 1-1.335-3.893 3.114 3.114 0 0 1 3.695-1.805c.084-.582.143-1.174.143-1.781 0-.605-.059-1.195-.143-1.777a3.118 3.118 0 0 1-3.695-1.809 3.115 3.115 0 0 1 1.335-3.891 12.501 12.501 0 0 0-2.517-2.521c-.773 1.344-2.427 1.947-3.893 1.34a3.115 3.115 0 0 1-1.807-3.699A12.91 12.91 0 0 0 77.5 65c-.608 0-1.197.059-1.781.141a3.119 3.119 0 0 1-1.807 3.699 3.114 3.114 0 0 1-3.89-1.336 12.548 12.548 0 0 0-2.519 2.518 3.115 3.115 0 0 1 1.337 3.891 3.119 3.119 0 0 1-3.698 1.809A12.253 12.253 0 0 0 65 77.499c0 .607.057 1.199.142 1.781a3.119 3.119 0 0 1 3.698 1.809 3.117 3.117 0 0 1-1.337 3.893 12.59 12.59 0 0 0 2.519 2.516 3.118 3.118 0 0 1 3.89-1.338 3.122 3.122 0 0 1 1.807 3.701c.584.08 1.173.139 1.781.139.606 0 1.197-.059 1.779-.141a3.124 3.124 0 0 1 1.809-3.701zM86.59 36.65v-3.304 3.304zM78.777 10.357a1.222 1.222 0 0 0-1.728.004L58.892 28.513 55.003 35l6.482-3.889 18.159-18.159a1.222 1.222 0 0 0 0-1.727l-.867-.868zM75.32 12.086l2.595 2.595-2.595-2.595zM73.591 13.816l2.595 2.595-2.595-2.595zM58.892 28.516l2.594 2.595-2.594-2.595z"></path><path stroke="#000" stroke-linecap="round" stroke-linejoin="round" stroke-miterlimit="10" d="M83.902 56.6L71.527 44.229a3.752 3.752 0 0 0-5.304 0L47.5 62.953v15.578l7.234 7.238a3.745 3.745 0 0 0 5.303 0l6.528-6.527a3.05 3.05 0 0 0-1.423.037A12.286 12.286 0 0 1 65 77.498c0-.605.057-1.195.142-1.777a3.119 3.119 0 0 0 3.698-1.809 3.115 3.115 0 0 0-1.337-3.891 12.548 12.548 0 0 1 2.519-2.518 3.114 3.114 0 0 0 3.89 1.336 3.119 3.119 0 0 0 1.807-3.699A12.89 12.89 0 0 1 77.5 65c.604 0 1.195.059 1.779.141-.13.479-.13.965-.038 1.426l4.659-4.66h.002a3.755 3.755 0 0 0 0-5.307z"></path><path stroke="#000" stroke-linecap="round" stroke-linejoin="round" stroke-miterlimit="10" d="M65.34 45.115L47.5 62.953v6.748l14.304 14.305 4.765-4.764a3.062 3.062 0 0 0-1.426.037 12.286 12.286 0 0 1-.142-1.781c0-.605.057-1.195.142-1.777a3.119 3.119 0 0 0 3.698-1.809 3.115 3.115 0 0 0-1.337-3.891 12.548 12.548 0 0 1 2.519-2.518 3.114 3.114 0 0 0 3.89 1.336 3.119 3.119 0 0 0 1.807-3.699c.583-.081 1.172-.14 1.78-.14.604 0 1.195.059 1.779.141a3.12 3.12 0 0 0-.038 1.43l3.777-3.779L65.34 45.115z"></path><path stroke="#000" stroke-linecap="round" stroke-linejoin="round" stroke-miterlimit="10" d="M86.692 16.817H75.779L61.485 31.111 55.003 35l3.889-6.486 11.697-11.696H47.5v36.367h9.771l8.953-8.955a3.752 3.752 0 0 1 5.304 0l8.954 8.955h6.211a3.31 3.31 0 0 0 3.308-3.308V20.125a3.31 3.31 0 0 0-3.309-3.308z"></path><path stroke="#000" stroke-linecap="round" stroke-linejoin="round" stroke-miterlimit="10" d="M73.505 19.09l-12.02 12.021L55.003 35l3.889-6.486 9.425-9.423H47.5v31.82h12.044l6.68-6.681a3.752 3.752 0 0 1 5.304 0l6.681 6.681h4.973V19.09h-9.677z"></path></g><!----></svg>